<svg width="316" height="306" viewBox="0 0 316 306" fill="none" xmlns="http://www.w3.org/2000/svg">
<path d="M201.938 130.025C211.59 130.025 211.606 115.025 201.938 115.025C192.286 115.025 192.27 130.025 201.938 130.025Z" fill="white"/>
<path d="M120.114 4.14218C123.149 3.65347 126.257 3.89316 129.182 4.84149C130.553 5.31449 135.567 7.04424 138.044 11.7566C138.985 13.5462 139.213 15.7069 139.668 20.0281C139.953 22.7272 141.01 24.6531 141.036 27.9478C141.005 30.6177 140.59 33.2693 139.803 35.8209C138.626 39.8142 139.425 42.0704 138.827 42.82C136.418 45.8414 129.006 43.5502 128.929 47.4666C128.881 49.8848 133.051 60.2872 132.991 63.1202C132.854 69.7219 121.773 62.9089 115.095 53.1205C114.792 52.6762 110.262 50.076 110.697 45.7959C110.929 43.5094 112.777 32.7742 112.579 31.3929C111.863 26.4001 109.339 25.812 107.302 19.7867C106.75 18.2743 106.596 16.6455 106.854 15.0565C107.113 13.4675 107.775 11.9715 108.778 10.7119C111.669 7.26043 115.682 4.935 120.114 4.14218Z" fill="white"/>
<path d="M138.675 25.5381C139.236 25.5333 139.685 24.9643 139.679 24.2673C139.673 23.5702 139.214 23.009 138.654 23.0138C138.093 23.0186 137.643 23.5875 137.649 24.2846C137.655 24.9816 138.115 25.5428 138.675 25.5381Z" fill="white"/>
<path d="M129.525 25.6172C130.085 25.6124 130.535 25.0434 130.529 24.3464C130.523 23.6493 130.064 23.0881 129.503 23.0929C128.943 23.0977 128.493 23.6666 128.499 24.3637C128.505 25.0608 128.964 25.622 129.525 25.6172Z" fill="white"/>
<path d="M133.819 22.059C133.943 22.0578 134.063 22.0207 134.166 21.9522C135.06 21.3232 136.124 20.9792 137.217 20.9656C138.311 20.9519 139.383 21.269 140.293 21.8755C140.429 21.9758 140.6 22.0178 140.768 21.9924C140.935 21.967 141.086 21.8762 141.187 21.7399C141.288 21.6035 141.33 21.4328 141.305 21.2651C141.28 21.0975 141.19 20.9465 141.054 20.8452C139.928 20.0953 138.604 19.6983 137.251 19.7052C135.898 19.712 134.577 20.1223 133.459 20.8836C133.344 20.96 133.256 21.0716 133.209 21.2017C133.163 21.3318 133.159 21.4736 133.2 21.6058C133.24 21.738 133.323 21.8535 133.434 21.9352C133.546 22.0169 133.681 22.0603 133.819 22.059Z" fill="white"/>
<path d="M124.335 22.14C124.458 22.1388 124.579 22.1017 124.682 22.0332C125.579 21.4109 126.641 21.071 127.733 21.0569C128.825 21.0429 129.895 21.3554 130.808 21.9544C130.876 22.0045 130.952 22.0408 131.034 22.0612C131.116 22.0816 131.2 22.0858 131.283 22.0735C131.367 22.0611 131.446 22.0326 131.519 21.9893C131.591 21.9461 131.654 21.8891 131.704 21.8216C131.754 21.7541 131.79 21.6774 131.81 21.5959C131.831 21.5143 131.835 21.4296 131.823 21.3464C131.81 21.2633 131.782 21.1834 131.739 21.1113C131.695 21.0392 131.638 20.9763 131.571 20.9262C130.444 20.1763 129.12 19.7794 127.767 19.7862C126.414 19.7931 125.093 20.2033 123.974 20.9646C123.859 21.041 123.772 21.1526 123.725 21.2827C123.678 21.4129 123.675 21.5546 123.716 21.6868C123.756 21.819 123.838 21.9345 123.95 22.0162C124.061 22.0979 124.196 22.1413 124.335 22.14Z" fill="white"/>
<path d="M132.949 22.3262C132.616 23.3928 132.667 24.5421 133.093 25.5749C133.463 26.6135 133.994 27.5869 134.668 28.4591L135.203 29.0578C135.269 29.1169 135.322 29.1885 135.359 29.2683C135.396 29.3482 135.417 29.4347 135.42 29.5227C135.381 29.9548 135.173 30.3539 134.841 30.6334C134.025 31.2463 133.008 31.5303 131.992 31.4292C132.52 31.6402 133.091 31.722 133.656 31.6679C134.222 31.6138 134.767 31.4253 135.245 31.1181C135.509 30.9373 135.73 30.7009 135.892 30.4256C136.055 30.1503 136.155 29.8427 136.186 29.5244C136.189 29.163 136.054 28.8142 135.808 28.5489L135.291 27.9442C134.659 27.1274 134.115 26.2467 133.666 25.3165C133.177 24.3969 132.93 23.3677 132.949 22.3262Z" fill="white"/>
<path d="M116.322 22.896C115.925 22.7813 115.501 22.8065 115.121 22.9674C114.742 23.1173 114.398 23.3443 114.111 23.6339C113.831 23.9182 113.603 24.2487 113.437 24.6109C113.27 24.9709 113.178 25.3607 113.164 25.7571C113.447 25.5068 113.714 25.2396 113.964 24.9571C114.218 24.7042 114.434 24.4345 114.683 24.2047C114.919 23.962 115.167 23.7322 115.427 23.5163C115.707 23.2837 116.006 23.0761 116.322 22.896Z" fill="white"/>
<path d="M115.542 28.1658C115.804 27.821 115.99 27.4242 116.087 27.002C116.184 26.5798 116.19 26.1417 116.104 25.717C116.032 25.2875 115.875 24.8767 115.642 24.5083C115.417 24.1393 115.106 23.83 114.736 23.6064C114.969 24.3444 115.16 25.095 115.308 25.8546C115.431 26.6197 115.51 27.3915 115.542 28.1658Z" fill="white"/>
<path d="M121.791 32.8169C121.791 32.8169 120.048 25.573 120.338 23.4923C120.742 20.593 120.944 19.1435 120.587 17.9681C120.016 16.0867 120.933 15.8332 122.098 13.7961C123.192 11.8841 126.642 13.3948 127.497 13.0704C129.897 12.1597 129.8 11.1467 131.427 11.0316C133.095 10.9135 134.317 10.462 135.404 11.5299C136.513 12.6199 138.557 15.5251 139.05 15.0138C140.088 13.6075 140.717 11.9427 140.871 10.2019C140.869 8.48745 140.448 6.79937 139.647 5.28394C139.244 4.40794 137.744 1.14801 134.673 0.300509C132.904 -0.187701 132.573 0.665102 128.757 0.923632C124.8 1.1919 124.669 0.307625 122.601 0.914675C120.311 1.58676 120.408 2.68816 116.504 4.86432C115.209 5.56286 113.877 6.19056 112.515 6.74465C107.608 8.87197 106.961 8.54405 105.838 9.64812C103.417 12.0284 103.85 16.0819 103.955 17.061C104.25 19.8185 105.334 20.6387 107.716 25.0396C111.487 32.0092 110.767 34.9575 112.135 35.9275C112.807 36.4034 116.306 33.8709 116.279 32.6379C116.244 31.0217 115.075 30.5216 113.683 28.1969C112.711 26.5723 111.315 24.2398 112.089 22.108C112.558 20.8194 113.095 21.1662 114.427 21.2782C116.235 21.4303 117.145 23.939 117.885 25.7795C118.419 27.1116 118.657 28.5439 118.582 29.977C118.418 33.1743 122.424 34.0839 121.791 32.8169Z" fill="white"/>
<path d="M129.924 35.9084C129.924 35.9084 133.953 39.6025 137.496 35.8438Z" fill="white"/>
<path d="M130.822 54.6897C130.822 54.6897 137.903 75.1631 110.828 44.75L99.0653 54.5181C96.6276 56.5773 94.9461 59.3905 94.2869 62.5127C93.7108 66.9419 93.1344 71.3712 92.5579 75.8005C90.3671 92.6399 90.3518 109.691 92.5125 126.534C93.0955 131.077 93.6784 135.619 94.2611 140.162L144.844 147.107C141.998 137.366 140.318 127.322 139.838 117.185C139.268 105.051 140.771 99.8884 140.198 89.8245C139.408 77.6112 136.222 65.6728 130.822 54.6897Z" fill="white"/>
<path d="M138.2 136.39C137.284 135.864 136.35 135.388 135.431 134.889L132.73 133.3C130.971 132.193 129.29 130.966 127.699 129.629C126.106 128.306 124.665 126.81 123.403 125.169C122.78 124.341 122.225 123.464 121.744 122.547C121.231 121.637 120.842 120.663 120.585 119.65C120.875 121.765 121.667 123.78 122.895 125.527C124.091 127.294 125.532 128.882 127.175 130.244C128.799 131.611 130.555 132.814 132.417 133.834L135.255 135.242C136.24 135.625 137.211 136.032 138.2 136.39Z" fill="white"/>
<path d="M124.062 42.4082C127.395 44.7092 133.784 44.5544 133.784 44.5544L133.804 44.7031C131.323 45.0264 128.972 45.2704 128.929 47.4668C129.046 48.6957 129.307 49.9065 129.707 51.0745C125.344 48.6168 124.062 42.4082 124.062 42.4082Z" fill="white"/>
<path d="M190.179 219.822L192.887 233.536L219.43 237.811L183.937 248.589L176.466 223.986L190.179 219.822Z" fill="white"/>
<path d="M223.36 237.939L223.336 237.858C223.147 237.236 222.789 236.678 222.301 236.247C221.814 235.816 221.217 235.529 220.576 235.418L192.913 230.612C192.643 230.565 192.364 230.615 192.127 230.752C191.889 230.89 191.707 231.107 191.613 231.365L188.819 239.03C188.72 239.302 188.523 239.527 188.268 239.663C188.012 239.799 187.715 239.835 187.434 239.765L180.927 238.133C180.726 238.083 180.515 238.087 180.316 238.145C180.117 238.202 179.937 238.312 179.794 238.462C179.652 238.612 179.551 238.797 179.503 238.999C179.455 239.2 179.462 239.411 179.522 239.609L182.759 250.268C182.849 250.565 183.054 250.814 183.327 250.961C183.601 251.107 183.922 251.139 184.219 251.048L222.58 239.4C222.877 239.31 223.126 239.105 223.273 238.831C223.419 238.557 223.451 238.236 223.36 237.939Z" fill="white"/>
<path d="M93.2942 130.185C93.2942 130.185 85.2115 166.011 100.659 165.369H159.382L175.203 229.218C175.203 229.218 181.286 231.7 186.566 230.594C190.193 229.835 193.318 226.375 195.491 224.605C195.491 224.605 183.933 133.068 162.07 130.288C134.797 126.82 93.2942 130.185 93.2942 130.185Z" fill="white"/>
<path d="M159.383 165.369C160.736 163.67 161.946 161.861 162.999 159.96C163.491 159.022 163.995 158.084 164.435 157.095C164.9 156.113 165.3 155.096 165.836 154.053C165.985 155.204 165.929 156.372 165.67 157.503C165.431 158.645 165.023 159.745 164.458 160.765C163.895 161.792 163.175 162.725 162.325 163.53C161.499 164.361 160.492 164.99 159.383 165.369Z" fill="white"/>
<path d="M112.406 67.5711C112.406 67.5711 114.698 62.1111 144.68 105.173L133.288 119.958C133.288 119.958 116.747 106.347 109.255 94.5965" fill="white"/>
<path d="M207.881 110.525L234.325 97.9121L235.681 126.813L210.254 118.584L207.881 110.525Z" fill="white"/>
<path d="M53.619 305.847C75.206 305.847 92.7058 288.3 92.7058 266.655C92.7058 245.01 75.206 227.463 53.619 227.463C32.032 227.463 14.5322 245.01 14.5322 266.655C14.5322 288.3 32.032 305.847 53.619 305.847Z" fill="white"/>
<path d="M53.6195 286.996C64.8229 286.996 73.9051 277.889 73.9051 266.656C73.9051 255.422 64.8229 246.315 53.6195 246.315C42.4161 246.315 33.334 255.422 33.334 266.656C33.334 277.889 42.4161 286.996 53.6195 286.996Z" fill="#848384"/>
<path d="M52.848 271.752C56.6735 271.752 56.6799 265.807 52.848 265.807C49.0226 265.807 49.0162 271.752 52.848 271.752Z" fill="white"/>
<path d="M265.694 305.847C287.281 305.847 304.781 288.3 304.781 266.655C304.781 245.01 287.281 227.463 265.694 227.463C244.107 227.463 226.607 245.01 226.607 266.655C226.607 288.3 244.107 305.847 265.694 305.847Z" fill="white"/>
<path d="M265.695 286.996C276.898 286.996 285.98 277.889 285.98 266.656C285.98 255.422 276.898 246.315 265.695 246.315C254.491 246.315 245.409 255.422 245.409 266.656C245.409 277.889 254.491 286.996 265.695 286.996Z" fill="#848384"/>
<path d="M264.923 274.778C272.644 274.778 272.657 262.778 264.923 262.778C257.201 262.778 257.189 274.778 264.923 274.778Z" fill="white"/>
<path d="M315.667 262.191C315.667 262.191 280.043 244.331 216.713 268.144H103.591C103.591 268.144 65.9889 291.957 2.65844 274.097C2.65844 274.097 -5.25786 260.206 14.5329 230.44C14.5329 230.44 26.4074 196.705 34.3237 190.752L143.45 190.809C143.45 190.809 140.904 245.901 180.485 249.869C220.067 253.838 216.109 216.134 216.109 216.134L210.869 132.69C210.779 127.399 210.418 122.115 209.789 116.86C209.068 110.732 206.989 111.584 209.463 112.824C213.421 114.809 252.336 157.016 260.252 216.549C260.252 216.549 305.771 210.596 315.667 262.191Z" fill="white"/>
<path d="M260.253 216.549C254.412 218.065 248.838 220.467 243.724 223.67C241.215 225.245 238.838 227.021 236.617 228.983C234.387 230.914 232.346 233.052 230.52 235.37C228.651 237.657 226.986 240.104 225.546 242.683C225.148 243.308 224.823 243.974 224.479 244.631C224.147 245.294 223.768 245.935 223.474 246.618C222.882 247.98 222.218 249.317 221.696 250.717C219.527 256.369 217.859 262.2 216.713 268.144C216.565 261.95 217.419 255.773 219.242 249.852C221.053 243.824 224.001 238.198 227.927 233.277C233.894 225.907 241.993 220.561 251.116 217.971C254.088 217.108 257.159 216.63 260.253 216.549Z" fill="white"/>
<path d="M103.591 268.143C107.103 262.77 109.847 256.933 111.744 250.801C113.592 244.754 114.38 238.298 112.942 232.317C111.423 226.34 107.76 221.13 102.65 217.678C102.337 217.455 102.044 217.205 101.714 217.002L100.726 216.393C100.062 215.994 99.4274 215.552 98.7411 215.187C97.338 214.501 96.0127 213.703 94.5262 213.139L92.3468 212.222C91.6433 211.93 90.9253 211.674 90.1958 211.455C88.7196 210.995 87.2 210.617 85.6693 210.294C79.4996 209.002 73.1803 208.575 66.8928 209.023C63.7391 209.231 60.6006 209.627 57.4941 210.21C54.3835 210.796 51.317 211.604 48.2689 212.492C36.0739 216.488 24.6606 222.559 14.5322 230.439L18.1406 227.203L21.9179 224.155L25.8284 221.265C27.1771 220.366 28.5109 219.436 29.879 218.557C35.4121 215.087 41.3045 212.225 47.4532 210.021C53.6578 207.843 60.1104 206.45 66.6608 205.874C73.2508 205.324 79.8855 205.715 86.3654 207.035C87.9857 207.39 89.5945 207.804 91.1924 208.316C91.9797 208.569 92.8132 208.853 93.5872 209.192L95.8566 210.169C97.3853 210.765 98.8341 211.637 100.317 212.384C101.05 212.782 101.741 213.266 102.453 213.704C103.175 214.134 103.865 214.616 104.518 215.144C110.125 219.112 114.035 225.042 115.473 231.759C116.113 235.058 116.202 238.44 115.736 241.767C115.277 245.034 114.454 248.239 113.283 251.323C112.108 254.364 110.698 257.31 109.068 260.134C107.47 262.952 105.638 265.631 103.591 268.143Z" fill="white"/>
<path d="M29.9907 192.322H137.985C144.542 192.322 149.859 186.288 149.859 178.846C149.859 171.403 144.542 165.369 137.985 165.369H29.9907C23.433 165.369 18.1162 171.403 18.1162 178.846C18.1162 186.288 23.433 192.322 29.9907 192.322Z" fill="white"/>
<path d="M90.5293 224.605C88.7315 226.723 86.7084 228.637 84.4957 230.316C82.2977 232.023 79.9849 233.577 77.5739 234.966C76.3943 235.714 75.1433 236.32 73.9081 236.963C72.6812 237.627 71.4041 238.176 70.1387 238.757C69.5072 239.051 68.8666 239.323 68.2278 239.6L66.2775 240.341C64.9707 240.815 63.684 241.354 62.359 241.774C57.0755 243.49 51.6525 244.741 46.1516 245.515C43.42 245.966 40.6406 246.079 37.8955 246.324C35.131 246.41 32.3662 246.414 29.6133 246.315C32.3135 245.675 35.0139 245.237 37.6925 244.7L41.693 243.833C43.0237 243.545 44.3634 243.322 45.675 242.957C46.9919 242.621 48.3088 242.296 49.6307 242.001C50.9589 241.731 52.2437 241.287 53.5498 240.937C54.8453 240.549 56.176 240.285 57.4538 239.843L61.3128 238.61C62.608 238.227 63.8616 237.727 65.139 237.291L67.0449 236.61C67.6683 236.354 68.2899 236.093 68.9207 235.854C71.4559 234.921 73.9019 233.781 76.3665 232.673C77.5829 232.087 78.8146 231.52 80.007 230.884L81.8179 229.958L83.591 228.962C85.9867 227.646 88.3034 226.192 90.5293 224.605Z" fill="white"/>
<path d="M95.1581 237.695C93.3603 239.812 91.3372 241.727 89.1246 243.406C86.9265 245.113 84.6138 246.666 82.2028 248.056C81.0232 248.803 79.7721 249.41 78.537 250.053C77.31 250.717 76.0328 251.266 74.7676 251.847C74.1361 252.141 73.4955 252.413 72.8566 252.69L70.9064 253.43C69.5996 253.905 68.3128 254.444 66.9879 254.864C61.7045 256.58 56.2814 257.831 50.7805 258.605C48.0488 259.056 45.2695 259.169 42.5244 259.414C39.7598 259.5 36.995 259.504 34.2422 259.405C36.9424 258.765 39.6427 258.327 42.3213 257.79L46.3219 256.923C47.6526 256.635 48.9922 256.412 50.304 256.047C51.6209 255.71 52.9378 255.386 54.2597 255.091C55.5878 254.821 56.8726 254.377 58.1787 254.027C59.4741 253.638 60.805 253.374 62.0828 252.933L65.9417 251.7C67.2368 251.317 68.4905 250.817 69.768 250.381L71.6738 249.699C72.2972 249.444 72.9189 249.183 73.5497 248.944C76.0847 248.01 78.5309 246.871 80.9954 245.762C82.2119 245.177 83.4436 244.61 84.636 243.973L86.4469 243.047L88.22 242.052C90.6156 240.736 92.9323 239.282 95.1581 237.695Z" fill="white"/>
<path d="M235.542 126.819C238.021 126.703 239.726 120.139 239.352 112.158C238.977 104.177 236.664 97.8019 234.186 97.9183C231.707 98.0346 230.002 104.599 230.377 112.579C230.751 120.56 233.064 126.936 235.542 126.819Z" fill="white"/>
<path d="M234.186 97.918C233.877 98.0059 233.59 98.1607 233.348 98.3715C233.105 98.5822 232.911 98.8437 232.781 99.1375C232.474 99.6995 232.238 100.297 232.076 100.916C231.74 102.167 231.507 103.443 231.38 104.732C230.906 109.929 231.153 115.167 232.113 120.297C232.36 121.568 232.711 122.817 233.163 124.03C233.381 124.632 233.673 125.205 234.03 125.735C234.188 126.016 234.405 126.258 234.666 126.445C234.927 126.632 235.226 126.76 235.542 126.819C235.193 126.842 234.844 126.784 234.521 126.649C234.198 126.513 233.911 126.305 233.683 126.04C233.191 125.55 232.769 124.995 232.428 124.39C231.762 123.195 231.234 121.929 230.852 120.616C229.363 115.385 229.105 109.88 230.1 104.533C230.356 103.19 230.764 101.88 231.315 100.628C231.598 99.9946 231.965 99.4024 232.408 98.8681C232.611 98.5829 232.877 98.3486 233.185 98.1837C233.494 98.0189 233.836 97.9279 234.186 97.918Z" fill="white"/>
<path d="M223.482 128.5C222.247 127.416 221.112 126.278 219.997 125.129L216.692 121.684C215.607 120.532 214.502 119.407 213.362 118.34C212.797 117.807 212.199 117.31 211.573 116.85C210.96 116.362 210.235 116.034 209.463 115.898C210.296 115.696 211.172 115.776 211.954 116.126C212.734 116.44 213.475 116.839 214.166 117.317C215.519 118.255 216.769 119.333 217.896 120.533C219.015 121.714 220.05 122.973 220.993 124.299C221.955 125.617 222.788 127.023 223.482 128.5Z" fill="white"/>
<path d="M71.4676 162.122H12.0426C11.1851 162.122 10.3628 161.781 9.75648 161.175C9.15018 160.569 8.80957 159.746 8.80957 158.889V115.365H74.7005V158.889C74.7005 159.746 74.3599 160.569 73.7536 161.175C73.1473 161.781 72.325 162.122 71.4676 162.122Z" fill="white"/>
<path d="M82.678 104.872V110.79C82.7337 111.944 82.3305 113.073 81.5564 113.931C80.7823 114.788 79.7003 115.305 78.5466 115.367H4.95974C3.80681 115.304 2.7257 114.788 1.95282 113.93C1.17995 113.072 0.778214 111.943 0.835453 110.79V104.872C0.779789 103.72 1.1823 102.593 1.95507 101.737C2.72784 100.881 3.80806 100.365 4.95974 100.303H78.5466C79.699 100.365 80.7802 100.88 81.5541 101.736C82.3281 102.592 82.7321 103.719 82.678 104.872Z" fill="white"/>
<path d="M144.343 106.01L189.458 112.024C189.458 112.024 207.884 105.187 211.637 114.884C212.132 116.223 212.147 117.693 211.677 119.042C210.552 122.415 207.891 129.075 205.943 123.518L203.939 117.804C203.939 117.804 197.024 122.593 190.342 120.218C187.928 119.36 155.618 125.653 138.201 121.405L133.288 119.958L144.343 106.01Z" fill="white"/>
<path d="M112.406 67.5716C112.55 67.3255 112.872 67.3253 113.124 67.3506C113.385 67.3998 113.642 67.4736 113.89 67.5708C114.367 67.7995 114.826 68.0668 115.26 68.3699C115.703 68.6585 116.126 68.9772 116.525 69.3238C116.925 69.6663 117.356 69.98 117.731 70.3489C119.295 71.7644 120.773 73.2683 122.209 74.8079C125.076 77.8963 127.716 81.1717 130.363 84.4383C132.991 87.7203 135.53 91.0718 138.015 94.4593C140.541 97.8189 142.909 101.288 145.359 104.7L145.712 105.192L145.336 105.679L139.626 113.061L133.884 120.418L133.398 121.041L132.809 120.54C130.562 118.63 128.393 116.671 126.278 114.637C124.164 112.606 122.087 110.539 120.075 108.407C118.064 106.275 116.114 104.083 114.294 101.784C112.454 99.5052 110.77 97.104 109.255 94.5969C110.957 96.9661 112.785 99.242 114.731 101.415C116.682 103.579 118.723 105.658 120.778 107.719C122.849 109.766 124.986 111.747 127.155 113.688C129.335 115.614 131.528 117.543 133.766 119.376L132.691 119.498L138.341 112.071L144.024 104.668L144 105.646C141.587 102.22 139.209 98.7676 136.759 95.3699C134.343 91.9453 131.854 88.5777 129.376 85.2005C126.862 81.8535 124.328 78.5152 121.618 75.3299C120.282 73.7212 118.903 72.148 117.438 70.6597C117.086 70.2708 116.682 69.9422 116.306 69.5801C115.932 69.2179 115.535 68.8794 115.119 68.5664C114.716 68.2366 114.288 67.9402 113.837 67.6802C113.605 67.5684 113.364 67.4781 113.115 67.4104C112.875 67.3687 112.568 67.3402 112.406 67.5716Z" fill="white"/>
<path d="M18.5997 164.827C18.898 164.817 19.1806 164.691 19.3879 164.477C19.5953 164.262 19.7112 163.975 19.7112 163.677C19.7112 163.378 19.5953 163.092 19.3879 162.877C19.1806 162.662 18.898 162.537 18.5997 162.526C18.3015 162.537 18.0189 162.662 17.8115 162.877C17.6042 163.092 17.4883 163.378 17.4883 163.677C17.4883 163.975 17.6042 164.262 17.8115 164.477C18.0189 164.691 18.3015 164.817 18.5997 164.827Z" fill="#935B50"/>
<path d="M18.5997 173.474C18.898 173.463 19.1806 173.338 19.3879 173.123C19.5953 172.909 19.7112 172.622 19.7112 172.323C19.7112 172.025 19.5953 171.738 19.3879 171.523C19.1806 171.309 18.898 171.183 18.5997 171.173C18.3015 171.183 18.0189 171.309 17.8115 171.523C17.6042 171.738 17.4883 172.025 17.4883 172.323C17.4883 172.622 17.6042 172.909 17.8115 173.123C18.0189 173.338 18.3015 173.463 18.5997 173.474Z" fill="#935B50"/>
<path d="M33.5519 164.827C33.8501 164.817 34.1327 164.691 34.3401 164.477C34.5474 164.262 34.6633 163.975 34.6633 163.677C34.6633 163.378 34.5474 163.092 34.3401 162.877C34.1327 162.662 33.8501 162.537 33.5519 162.526C33.2536 162.537 32.971 162.662 32.7637 162.877C32.5563 163.092 32.4404 163.378 32.4404 163.677C32.4404 163.975 32.5563 164.262 32.7637 164.477C32.971 164.691 33.2536 164.817 33.5519 164.827Z" fill="#935B50"/>
<path d="M41.755 164.523C42.0532 164.512 42.3358 164.387 42.5432 164.172C42.7505 163.957 42.8664 163.671 42.8664 163.372C42.8664 163.074 42.7505 162.787 42.5432 162.572C42.3358 162.358 42.0532 162.232 41.755 162.222C41.4567 162.232 41.1741 162.358 40.9668 162.572C40.7594 162.787 40.6436 163.074 40.6436 163.372C40.6436 163.671 40.7594 163.957 40.9668 164.172C41.1741 164.387 41.4567 164.512 41.755 164.523Z" fill="#935B50"/>
<path d="M10.6427 164.827C10.9409 164.817 11.2235 164.691 11.4309 164.477C11.6382 164.262 11.7541 163.975 11.7541 163.677C11.7541 163.378 11.6382 163.092 11.4309 162.877C11.2235 162.662 10.9409 162.537 10.6427 162.526C10.3444 162.537 10.0618 162.662 9.85449 162.877C9.64714 163.092 9.53125 163.378 9.53125 163.677C9.53125 163.975 9.64714 164.262 9.85449 164.477C10.0618 164.691 10.3444 164.817 10.6427 164.827Z" fill="#935B50"/>
<path d="M72.7247 164.827C73.023 164.817 73.3056 164.691 73.5129 164.477C73.7203 164.262 73.8362 163.975 73.8362 163.677C73.8362 163.378 73.7203 163.092 73.5129 162.877C73.3056 162.662 73.023 162.537 72.7247 162.526C72.4265 162.537 72.1439 162.662 71.9365 162.877C71.7292 163.092 71.6133 163.378 71.6133 163.677C71.6133 163.975 71.7292 164.262 71.9365 164.477C72.1439 164.691 72.4265 164.817 72.7247 164.827Z" fill="#935B50"/>
</svg>
