<svg width="170" height="114" viewBox="0 0 170 114" fill="none" xmlns="http://www.w3.org/2000/svg">
<path d="M11.786 17.809L13.944 19.137C13.944 29.3183 15.355 38.974 18.177 48.104C19.1177 46.0013 21.6907 41.5193 25.896 34.658C30.1013 27.7967 33.698 22.5123 36.686 18.805C37.35 18.0303 38.5397 17.643 40.255 17.643C40.587 17.643 40.753 17.7813 40.753 18.058C40.753 18.2793 39.508 20.4097 37.018 24.449C34.5833 28.433 31.8167 33.4683 28.718 39.555C25.6193 45.6417 23.4613 51.092 22.244 55.906C21.912 59.1153 21.746 62.2693 21.746 65.368C21.746 70.2927 21.829 73.7233 21.995 75.66L22.078 76.573C22.078 76.739 21.829 76.822 21.331 76.822C20.8883 76.822 20.2243 76.6837 19.339 76.407C18.509 76.1857 17.9557 75.909 17.679 75.577C16.517 69.3797 15.8807 62.878 15.77 56.072C13.2247 50.6493 10.8453 44.5903 8.632 37.895C6.41867 31.1443 5.063 25.5833 4.565 21.212L11.786 17.809ZM67.3629 36.069L63.3789 40.634C66.4776 44.3967 68.0269 49.1277 68.0269 54.827C68.0269 62.8503 65.4539 69.02 60.3079 73.336C57.5966 75.6047 54.2489 76.739 50.2649 76.739C46.3363 76.739 42.9609 75.162 40.1389 72.008C37.3723 68.854 35.9889 64.5103 35.9889 58.977C35.9889 53.167 38.1469 47.8827 42.4629 43.124C44.7316 40.634 47.9133 38.559 52.0079 36.899C56.1579 35.239 60.9719 34.1877 66.4499 33.745L67.3629 36.069ZM51.5099 69.186C54.8853 69.186 57.6796 67.7473 59.8929 64.87C62.1616 61.9927 63.2959 59.0047 63.2959 55.906C63.2959 49.2107 61.7743 44.037 58.7309 40.385C54.4703 41.1043 50.8736 43.0133 47.9409 46.112C45.0083 49.2107 43.5419 52.7243 43.5419 56.653C43.5419 60.5817 44.2336 63.6527 45.6169 65.866C47.0556 68.0793 49.0199 69.186 51.5099 69.186ZM79.7766 14.904L86.4166 18.058C87.0253 22.1527 87.3296 26.607 87.3296 31.421C87.3296 36.1797 87.053 41.2703 86.4996 46.693C85.3376 57.649 83.6776 67.1387 81.5196 75.162C81.1876 75.5493 80.6066 75.8813 79.7766 76.158C78.9466 76.4347 78.2826 76.573 77.7846 76.573C77.2866 76.573 77.0376 76.4347 77.0376 76.158C79.6383 65.0913 80.9386 54.163 80.9386 43.373C80.9386 32.583 79.8596 23.536 77.7016 16.232L79.7766 14.904ZM117.806 18.058L124.446 14.904L126.521 16.232C124.363 23.536 123.284 32.4723 123.284 43.041C123.284 53.5543 124.529 64.5933 127.019 76.158C127.019 76.4347 126.798 76.573 126.355 76.573C124.917 76.573 123.782 76.1027 122.952 75.162C121.624 70.016 120.352 63.625 119.134 55.989C116.866 61.799 114.071 66.5577 110.751 70.265C107.431 73.9723 104.277 75.826 101.289 75.826C98.9098 75.826 97.1115 74.996 95.8942 73.336C94.7322 71.6207 94.1512 69.1583 94.1512 65.949C94.1512 62.7397 94.8428 59.2813 96.2262 55.574C97.6648 51.8667 100.183 48.0763 103.779 44.203C107.376 40.2743 111.803 37.148 117.059 34.824C117.004 33.5513 116.976 31.3933 116.976 28.35C116.976 25.2513 117.253 21.8207 117.806 18.058ZM118.138 48.768C117.696 44.5627 117.419 41.4087 117.308 39.306C113.822 40.8553 110.862 42.9027 108.427 45.448C104.111 50.0407 101.953 54.7993 101.953 59.724C101.953 63.8187 103.337 65.866 106.103 65.866C107.929 65.866 109.949 64.372 112.162 61.384C114.431 58.396 116.423 54.1907 118.138 48.768ZM156.566 35.986L163.289 33.081L165.281 34.243C163.455 39.6103 162.542 45.8077 162.542 52.835C162.542 55.823 162.791 59.973 163.289 65.285C163.787 70.597 164.257 74.1937 164.7 76.075C164.7 76.241 164.285 76.324 163.455 76.324C162.625 76.324 161.823 75.9367 161.048 75.162C159.277 71.0673 157.866 65.036 156.815 57.068C154.491 62.6013 151.697 67.111 148.432 70.597C145.223 74.083 142.318 75.826 139.717 75.826C134.737 75.826 132.247 72.6997 132.247 66.447C132.247 62.8503 132.966 59.392 134.405 56.072C135.844 52.752 137.78 49.847 140.215 47.357C145.084 42.4323 150.535 38.642 156.566 35.986ZM144.199 65.866C145.97 65.866 147.934 64.455 150.092 61.633C152.305 58.7557 154.27 54.7163 155.985 49.515C155.93 48.7403 155.902 47.2463 155.902 45.033C155.902 42.8197 155.93 41.1873 155.985 40.136C151.226 42.8473 147.381 45.7523 144.448 48.851C141.515 51.8943 140.049 55.491 140.049 59.641C140.049 63.791 141.432 65.866 144.199 65.866Z" fill="white"/>
<path d="M39.5 31.5002C43.3333 23.5002 55.3 11.1002 72.5 25.5002" stroke="white" stroke-width="5" stroke-linecap="round"/>
<path d="M78.8207 89.6277C72.712 92.3422 74.1595 104.07 69.1193 107.493C79.9285 108.82 87.384 104.539 87.0246 102.762C86.6653 100.986 87.5734 93.5899 84.5095 90.3262C82.5246 88.2119 79.6257 89.3416 78.8207 89.6277Z" fill="white" stroke="white" stroke-width="2" stroke-linecap="round"/>
<path d="M53.6795 101.556C69.7788 116.237 85.5483 110.088 95.0497 98.5505M55.8053 98.3517L50.9848 104.69" stroke="white" stroke-width="3" stroke-linecap="round"/>
<path d="M93.748 95.041L98.8783 100.291" stroke="white" stroke-width="2" stroke-linecap="round"/>
<path d="M81.5768 95.3932C82.2955 98.9463 79.8404 103.265 78.6826 104.855" stroke="#FF9556" stroke-width="2" stroke-linecap="round"/>
</svg>
