<svg width="24" height="24" viewBox="0 0 24 24" fill="none" xmlns="http://www.w3.org/2000/svg">
<g clip-path="url(#clip0_3438_14929)">
<path d="M1 12C1 4 4 1 12 1C20 1 23 4 23 12C23 20 20 23 12 23C4 23 1 20 1 12Z" fill="#00ABE8"/>
<path fill-rule="evenodd" clip-rule="evenodd" d="M17.0004 6.99961L6.25044 11.5396C6.17248 11.5708 6.10565 11.6246 6.05857 11.6941C6.01149 11.7636 5.98633 11.8457 5.98633 11.9296C5.98633 12.0136 6.01149 12.0956 6.05857 12.1651C6.10565 12.2346 6.17248 12.2884 6.25044 12.3196L8.25044 12.9496C8.5669 13.0473 8.9014 13.072 9.22877 13.0218C9.55613 12.9715 9.86785 12.8477 10.1404 12.6596L14.6704 9.52961C14.7028 9.51291 14.7399 9.50774 14.7756 9.51497C14.8113 9.5222 14.8434 9.54138 14.8667 9.56936C14.8901 9.59733 14.9031 9.63242 14.9038 9.66883C14.9045 9.70524 14.8927 9.74079 14.8704 9.76961L11.4004 13.0896C11.3122 13.1762 11.2441 13.2813 11.2011 13.3973C11.1582 13.5132 11.1413 13.6373 11.1518 13.7605C11.1624 13.8837 11.1999 14.0031 11.2619 14.1101C11.3239 14.2172 11.4088 14.3092 11.5104 14.3796L15.2404 16.8996C15.357 16.9764 15.4909 17.0229 15.63 17.0349C15.769 17.047 15.9089 17.0242 16.0369 16.9686C16.165 16.913 16.2772 16.8264 16.3633 16.7166C16.4495 16.6068 16.5069 16.4772 16.5304 16.3396L18.0004 7.79961C18.0231 7.67063 18.0106 7.53794 17.9644 7.41544C17.9181 7.29293 17.8397 7.18513 17.7375 7.10333C17.6352 7.02152 17.5128 6.96873 17.3832 6.95048C17.2535 6.93223 17.1213 6.9492 17.0004 6.99961Z" fill="white"/>
</g>
<defs>
<clipPath id="clip0_3438_14929">
<rect width="24" height="24" fill="white"/>
</clipPath>
</defs>
</svg>
