<svg width="40" height="58" viewBox="0 0 40 58" fill="none" xmlns="http://www.w3.org/2000/svg">
<ellipse cx="20" cy="51" rx="15" ry="5" fill="#FF9556" fill-opacity="0.2"/>
<ellipse cx="20" cy="50.5" rx="10" ry="3.5" fill="#FF9556" fill-opacity="0.2"/>
<ellipse cx="20" cy="51.5" rx="20" ry="6.5" fill="#FF9556" fill-opacity="0.1"/>
<path d="M20 50L20 10" stroke="#3C486B" stroke-linecap="round"/>
<ellipse cx="20" cy="50.5" rx="2" ry="0.5" fill="#3C486B"/>
<g clip-path="url(#clip0_3456_14954)">
<rect x="2.99902" y="-0.000976562" width="33.01" height="33.01" rx="16.505" fill="#FF9556"/>
<path d="M20.7353 28.221C20.5813 28.221 20.3172 28.177 19.9431 28.0889C19.591 28.0009 19.3599 27.8799 19.2499 27.7258C19.0298 26.5155 18.8538 25.2501 18.7217 23.9297C18.5897 22.5873 18.5127 21.2669 18.4907 19.9685C18.0065 18.9122 17.5224 17.7678 17.0382 16.5354C16.5541 15.3031 16.1029 14.0597 15.6848 12.8053C15.2667 11.5289 14.9146 10.3185 14.6285 9.1742C14.3424 8.00785 14.1443 6.98454 14.0343 6.10427L16.9062 4.75086L17.7644 5.27902C17.7644 7.28163 17.9075 9.26223 18.1936 11.2208C18.4796 13.1794 18.8978 15.039 19.4479 16.7995C19.558 16.5794 19.789 16.1503 20.1412 15.5121C20.5153 14.8519 20.9664 14.0817 21.4946 13.2014C22.0227 12.2991 22.5949 11.3639 23.2111 10.3956C23.8273 9.40527 24.4435 8.45898 25.0596 7.55671C25.6758 6.63243 26.259 5.82919 26.8092 5.14698C26.9192 5.01494 27.1283 4.90491 27.4364 4.81688C27.7665 4.72885 28.0305 4.68484 28.2286 4.68484C28.3606 4.68484 28.4267 4.73986 28.4267 4.84989C28.4267 4.95992 28.2286 5.34504 27.8325 6.00524C27.4364 6.64343 26.9302 7.47969 26.314 8.514C25.6978 9.52631 25.0486 10.6707 24.3664 11.947C23.6842 13.2234 23.046 14.5438 22.4519 15.9082C21.8577 17.2727 21.3955 18.6041 21.0654 19.9025C20.9334 21.1788 20.8674 22.6203 20.8674 24.2268C20.8674 25.7012 20.8894 26.6915 20.9334 27.1977C20.9774 27.7038 20.9994 28.0119 20.9994 28.1219C20.9994 28.188 20.9114 28.221 20.7353 28.221Z" fill="white"/>
</g>
<defs>
<clipPath id="clip0_3456_14954">
<rect x="2.99902" y="-0.000976562" width="33.01" height="33.01" rx="16.505" fill="white"/>
</clipPath>
</defs>
</svg>
