<svg width="650" height="512" viewBox="0 0 650 512" fill="none" xmlns="http://www.w3.org/2000/svg">
<path d="M337.968 411.09C430.583 411.09 505.663 336.01 505.663 243.395C505.663 150.78 430.583 75.7002 337.968 75.7002C245.353 75.7002 170.273 150.78 170.273 243.395C170.273 336.01 245.353 411.09 337.968 411.09Z" fill="#DCDEE3"/>
<path d="M574.584 223.757V205.647C574.584 202.194 573.212 198.882 570.77 196.44C568.328 193.998 565.016 192.627 561.563 192.627H505.604C503.894 192.627 502.2 192.29 500.621 191.635C499.041 190.981 497.605 190.022 496.396 188.813C495.187 187.604 494.228 186.168 493.574 184.589C492.919 183.009 492.583 181.316 492.583 179.606V161.496C492.583 158.043 493.954 154.731 496.396 152.289C498.838 149.847 502.15 148.475 505.604 148.475H527.055C530.508 148.475 533.82 147.103 536.262 144.661C538.704 142.22 540.076 138.908 540.076 135.454V117.345C540.076 113.891 538.704 110.579 536.262 108.137C533.82 105.696 530.508 104.324 527.055 104.324H143.135C139.682 104.324 136.37 105.696 133.928 108.137C131.486 110.579 130.115 113.891 130.115 117.345V135.454C130.115 138.908 131.486 142.22 133.928 144.661C136.37 147.103 139.682 148.475 143.135 148.475C146.589 148.475 149.901 149.847 152.343 152.289C154.784 154.731 156.156 158.043 156.156 161.496V179.606C156.156 183.059 154.784 186.371 152.343 188.813C149.901 191.255 146.589 192.627 143.135 192.627H82.7826C79.3292 192.627 76.0173 193.998 73.5754 196.44C71.1336 198.882 69.7617 202.194 69.7617 205.647V223.757C69.7617 227.21 71.1336 230.522 73.5755 232.964C76.0173 235.406 79.3292 236.778 82.7826 236.778H142.54C144.25 236.778 145.943 237.115 147.523 237.769C149.103 238.423 150.538 239.383 151.747 240.592C152.957 241.801 153.916 243.236 154.57 244.816C155.224 246.396 155.561 248.089 155.561 249.799V267.909C155.88 284.48 119.732 280.93 112.54 280.93H112.493C109.039 280.93 105.727 282.301 103.285 284.743C100.844 287.185 99.4717 290.497 99.4717 293.95V312.06C99.4717 315.513 100.844 318.825 103.285 321.267C105.727 323.709 109.039 325.081 112.493 325.081H145.351C148.804 325.081 152.116 326.453 154.558 328.895C157 331.336 158.372 334.648 158.372 338.102V356.211C158.372 359.665 157 362.977 154.558 365.419C152.116 367.86 148.804 369.232 145.351 369.232H108.438C104.984 369.232 101.672 370.604 99.2305 373.046C96.7886 375.488 95.4168 378.8 95.4168 382.253V400.363C95.4168 403.816 96.7886 407.128 99.2305 409.57C101.672 412.012 104.984 413.384 108.438 413.384H524.045C527.499 413.384 530.81 412.012 533.252 409.57C535.694 407.128 537.066 403.816 537.066 400.363V382.253C537.066 378.8 535.694 375.488 533.252 373.046C530.81 370.604 527.499 369.232 524.045 369.232H502.755C499.302 369.232 495.99 367.86 493.548 365.419C491.106 362.977 489.735 359.665 489.735 356.211V338.102C489.735 334.648 491.106 331.336 493.548 328.895C495.99 326.453 499.302 325.081 502.755 325.081H539.376C542.829 325.081 546.141 323.709 548.583 321.267C551.025 318.825 552.396 315.513 552.396 312.06V293.95C552.396 290.497 551.025 287.185 548.583 284.743C546.141 282.301 542.829 280.93 539.376 280.93H521.3C517.847 280.93 514.535 279.558 512.093 277.116C509.651 274.674 508.279 271.362 508.279 267.909V249.799C508.279 248.089 508.616 246.396 509.271 244.816C509.925 243.236 510.884 241.801 512.093 240.592C513.302 239.383 514.738 238.423 516.317 237.769C517.897 237.115 519.59 236.778 521.3 236.778H561.563C565.016 236.778 568.328 235.406 570.77 232.964C573.212 230.522 574.584 227.21 574.584 223.757Z" fill="#DCDEE3"/>
<path d="M340.677 195.508C366.612 195.508 387.636 174.484 387.636 148.55C387.636 122.615 366.612 101.591 340.677 101.591C314.743 101.591 293.719 122.615 293.719 148.55C293.719 174.484 314.743 195.508 340.677 195.508Z" fill="#3C486B"/>
<path d="M324.053 138.772C324.052 138.714 324.052 138.655 324.052 138.597C324.052 135.319 325.021 132.115 326.837 129.386C328.653 126.657 331.236 124.526 334.259 123.26C337.283 121.995 340.614 121.652 343.832 122.274C347.051 122.896 350.013 124.455 352.348 126.756C354.683 129.057 356.285 131.997 356.954 135.206C357.622 138.415 357.327 141.75 356.106 144.792C354.884 147.834 352.791 150.447 350.089 152.303C347.387 154.158 344.196 155.174 340.919 155.221V170.318" stroke="#FF9556" stroke-width="4" stroke-linecap="round" stroke-linejoin="round"/>
<path d="M419.668 116.939H451.971" stroke="#3C486B" stroke-width="3" stroke-miterlimit="10" stroke-linecap="round"/>
<path d="M419.668 126.25H451.971" stroke="#3C486B" stroke-width="3" stroke-miterlimit="10" stroke-linecap="round"/>
<path d="M419.668 135.561H451.971" stroke="#3C486B" stroke-width="3" stroke-miterlimit="10" stroke-linecap="round"/>
<path d="M119.153 293.762H151.456" stroke="#3C486B" stroke-width="3" stroke-miterlimit="10" stroke-linecap="round"/>
<path d="M119.153 303.072H151.456" stroke="#3C486B" stroke-width="3" stroke-miterlimit="10" stroke-linecap="round"/>
<path d="M119.153 312.383H151.456" stroke="#3C486B" stroke-width="3" stroke-miterlimit="10" stroke-linecap="round"/>
<path d="M481.641 360.156H513.943" stroke="#3C486B" stroke-width="3" stroke-miterlimit="10" stroke-linecap="round"/>
<path d="M481.641 369.467H513.943" stroke="#3C486B" stroke-width="3" stroke-miterlimit="10" stroke-linecap="round"/>
<path d="M481.641 378.777H513.943" stroke="#3C486B" stroke-width="3" stroke-miterlimit="10" stroke-linecap="round"/>
<path d="M480.858 233.243H202.621L193.549 210.243H480.858C481.215 210.243 481.569 210.313 481.899 210.45C482.23 210.587 482.53 210.787 482.782 211.04C483.035 211.293 483.236 211.593 483.372 211.923C483.509 212.253 483.58 212.607 483.58 212.964V230.521C483.58 230.879 483.509 231.233 483.372 231.563C483.236 231.893 483.035 232.193 482.782 232.446C482.53 232.699 482.23 232.899 481.899 233.036C481.569 233.173 481.215 233.243 480.858 233.243Z" fill="#3C486B" fill-opacity="0.6"/>
<path d="M440.322 354.089H251.126C250.203 354.089 249.302 353.808 248.543 353.282C247.784 352.756 247.204 352.011 246.879 351.147L202.621 233.243H471.168L444.748 350.55C444.521 351.554 443.96 352.452 443.156 353.096C442.351 353.739 441.352 354.089 440.322 354.089Z" fill="#FF9556"/>
<path d="M457.563 293.669C438.208 294.911 418.853 295.56 399.498 296.001C389.82 296.278 380.143 296.339 370.465 296.502L341.433 296.667C322.078 296.685 302.723 296.466 283.368 296.01C264.013 295.571 244.658 294.918 225.303 293.669C244.658 292.42 264.013 291.768 283.368 291.328C302.723 290.893 322.078 290.674 341.433 290.671L370.465 290.837C380.143 290.999 389.82 291.061 399.498 291.337C418.853 291.778 438.208 292.428 457.563 293.669Z" fill="#777F97"/>
<path d="M419.703 233.243C418.601 243.789 416.916 254.204 415.055 264.579C413.171 274.948 411.068 285.269 408.747 295.54C406.438 305.814 403.916 316.04 401.181 326.219C399.801 331.305 398.372 336.38 396.846 341.433C396.057 343.954 395.305 346.483 394.485 348.997L393.853 350.907C393.605 351.608 393.2 352.244 392.671 352.766C392.175 353.257 391.574 353.631 390.914 353.861C390.254 354.09 389.552 354.168 388.857 354.089C389.484 354.015 390.088 353.806 390.626 353.477C391.165 353.147 391.626 352.705 391.977 352.181C392.306 351.698 392.522 351.148 392.61 350.571L392.862 348.632C393.199 346.009 393.604 343.402 393.972 340.786C394.76 335.567 395.645 330.369 396.578 325.182C398.463 314.812 400.569 304.492 402.895 294.222C405.212 283.95 407.737 273.725 410.469 263.546C413.236 253.375 416.178 243.243 419.703 233.243Z" fill="#767E96"/>
<path d="M311.586 354.089C310.864 354.168 310.133 354.077 309.452 353.823C308.771 353.57 308.158 353.162 307.662 352.631C307.175 352.072 306.785 351.436 306.506 350.749L305.61 348.892C304.415 346.416 303.289 343.914 302.125 341.426C299.847 336.431 297.662 331.402 295.522 326.356C291.261 316.257 287.21 306.078 283.368 295.822C279.514 285.569 275.865 275.24 272.42 264.834C269.004 254.418 265.76 243.936 263.081 233.243C268.1 243.058 272.554 253.085 276.837 263.176C281.098 273.276 285.146 283.455 288.984 293.714C292.83 303.969 296.476 314.299 299.924 324.704C301.633 329.912 303.297 335.136 304.869 340.396C305.629 343.035 306.428 345.66 307.158 348.311L307.705 350.299C307.83 350.923 308.055 351.523 308.372 352.075C308.722 352.63 309.192 353.1 309.749 353.449C310.305 353.798 310.933 354.017 311.586 354.089Z" fill="#777F97"/>
<path d="M298.105 446.801C308.456 446.801 316.848 438.41 316.848 428.058C316.848 417.706 308.456 409.314 298.105 409.314C287.753 409.314 279.361 417.706 279.361 428.058C279.361 438.41 287.753 446.801 298.105 446.801Z" fill="#3C486B"/>
<path d="M298.105 436.709C302.883 436.709 306.756 432.836 306.756 428.058C306.756 423.28 302.883 419.407 298.105 419.407C293.327 419.407 289.454 423.28 289.454 428.058C289.454 432.836 293.327 436.709 298.105 436.709Z" fill="white"/>
<path d="M406.224 446.801C416.576 446.801 424.967 438.41 424.967 428.058C424.967 417.706 416.576 409.314 406.224 409.314C395.872 409.314 387.48 417.706 387.48 428.058C387.48 438.41 395.872 446.801 406.224 446.801Z" fill="#3C486B"/>
<path d="M406.224 436.709C411.002 436.709 414.875 432.836 414.875 428.058C414.875 423.28 411.002 419.407 406.224 419.407C401.446 419.407 397.573 423.28 397.573 428.058C397.573 432.836 401.446 436.709 406.224 436.709Z" fill="white"/>
<path d="M343.092 233.243C344.931 243.24 346.174 253.272 347.239 263.315C348.278 273.359 349.094 283.417 349.686 293.488C350.291 303.558 350.678 313.641 350.847 323.737C350.985 333.835 350.939 343.944 350.292 354.089C348.445 344.093 347.199 334.061 346.137 324.018C345.098 313.974 344.285 303.916 343.698 293.845C343.102 283.774 342.717 273.691 342.545 263.595C342.409 253.496 342.453 243.387 343.092 233.243Z" fill="#777F97"/>
<path d="M437.938 399.801H268.384C267.777 399.801 267.185 399.617 266.684 399.273C266.184 398.93 265.8 398.442 265.583 397.875L167.385 141.898H115.371C114.575 141.898 113.812 141.582 113.25 141.019C112.687 140.457 112.371 139.694 112.371 138.898C112.371 138.102 112.687 137.339 113.25 136.777C113.812 136.214 114.575 135.898 115.371 135.898H169.447C170.054 135.898 170.647 136.082 171.147 136.426C171.647 136.77 172.031 137.257 172.248 137.824L270.446 393.801H437.938C438.733 393.801 439.496 394.117 440.059 394.68C440.622 395.243 440.938 396.006 440.938 396.801C440.938 397.597 440.622 398.36 440.059 398.923C439.496 399.485 438.733 399.801 437.938 399.801Z" fill="#767E96"/>
<path d="M141.457 130.248H105.857C104.753 130.248 103.857 131.143 103.857 132.248V146.608C103.857 147.713 104.753 148.608 105.857 148.608H141.457C142.562 148.608 143.457 147.713 143.457 146.608V132.248C143.457 131.143 142.562 130.248 141.457 130.248Z" fill="#7C889F"/>
<path d="M340.678 182.3C342.169 182.3 343.378 181.091 343.378 179.6C343.378 178.109 342.169 176.9 340.678 176.9C339.186 176.9 337.978 178.109 337.978 179.6C337.978 181.091 339.186 182.3 340.678 182.3Z" fill="#FF9556"/>
</svg>
